# xmcd
#
# Track frame offsets: 
#        150
#        17957
#        47167
#
# Disc length: 1092 seconds
#
# Revision: 0
# Processed by: cddbd v1.5.2PL0 Copyright (c) Steve Scherf et al.
# Submitted via: ExactAudioCopy v1.0b1
#
DISCID=20044203
DTITLE=Plus One - Last Flight Out (Single)
DYEAR=2000
DGENRE=
TTITLE0=Last Flight Out
TTITLE1=I Will Rescue You
TTITLE2=Data
EXTD=
EXTT0=
EXTT1=
EXTT2=
PLAYORDER=
